<svg width="2933" height="657" viewBox="0 0 2933 657" fill="none" xmlns="http://www.w3.org/2000/svg">
<g clip-path="url(#clip0_163_147)">
<path fill-rule="evenodd" clip-rule="evenodd" d="M0 50.3594C0 22.5466 22.5476 0 50.3594 0H394.562C505.813 0 596 90.1866 596 201.438V572.083C596 599.895 573.452 622.442 545.641 622.442H449.958V223.596C449.958 167.97 404.864 122.877 349.239 122.877H145.035V185.067H0V50.3594ZM0 310.966V421.004C0 532.255 90.1866 622.442 201.438 622.442H324.376V500.572H245.754C190.128 500.572 145.035 455.479 145.035 399.853V310.966H0Z" fill="url(#paint0_linear_163_147)"/>
<path d="M776.433 430.73V122.321H783.088L988.14 358.359V122.321H1018.5V430.73H1011.43L808.46 197.604V430.73H776.433ZM1280.54 350.041L1305.07 363.142C1297.17 379.086 1287.88 391.91 1277.21 401.615C1266.53 411.32 1254.54 418.738 1241.23 423.867C1227.92 428.859 1212.88 431.354 1196.1 431.354C1158.95 431.354 1129.9 419.223 1108.97 394.961C1088.03 370.56 1077.56 343.039 1077.56 312.399C1077.56 283.423 1086.44 257.636 1104.18 235.037C1126.64 206.2 1156.8 191.781 1194.65 191.781C1233.33 191.781 1264.31 206.546 1287.61 236.077C1304.1 256.873 1312.42 282.799 1312.56 313.855H1107.72C1108.27 340.474 1116.73 362.31 1133.09 379.363C1149.45 396.278 1169.62 404.735 1193.61 404.735C1205.25 404.735 1216.55 402.725 1227.5 398.704C1238.46 394.545 1247.75 389.138 1255.37 382.483C1263.14 375.828 1271.52 365.014 1280.54 350.041ZM1280.54 288.692C1276.65 273.025 1270.97 260.547 1263.48 251.258C1256 241.831 1246.08 234.275 1233.74 228.59C1221.4 222.767 1208.44 219.856 1194.85 219.856C1172.53 219.856 1153.33 227.065 1137.25 241.484C1125.6 252.021 1116.8 267.757 1110.84 288.692H1280.54ZM1474.98 191.781C1510.06 191.781 1539.17 204.467 1562.33 229.838C1583.26 253.13 1593.73 280.65 1593.73 312.399C1593.73 344.148 1582.64 371.946 1560.45 395.792C1538.27 419.5 1509.78 431.354 1474.98 431.354C1440.04 431.354 1411.48 419.5 1389.3 395.792C1367.26 371.946 1356.23 344.148 1356.23 312.399C1356.23 280.789 1366.7 253.338 1387.64 230.046C1410.79 204.536 1439.9 191.781 1474.98 191.781ZM1474.98 220.48C1450.72 220.48 1429.85 229.491 1412.38 247.515C1394.91 265.538 1386.18 287.305 1386.18 312.815C1386.18 329.314 1390.13 344.772 1398.03 359.191C1406.08 373.471 1416.89 384.493 1430.48 392.257C1444.06 399.882 1458.9 403.695 1474.98 403.695C1491.34 403.695 1506.24 399.882 1519.69 392.257C1533.28 384.493 1544.02 373.471 1551.93 359.191C1559.83 344.772 1563.78 329.314 1563.78 312.815C1563.78 287.305 1555.05 265.538 1537.58 247.515C1520.11 229.491 1499.24 220.48 1474.98 220.48ZM1869.28 245.019L1845.99 259.577C1825.88 232.68 1798.43 219.232 1763.63 219.232C1735.77 219.232 1712.61 228.174 1694.17 246.059C1675.87 263.944 1666.72 285.711 1666.72 311.36C1666.72 327.997 1670.95 343.732 1679.41 358.567C1687.87 373.263 1699.44 384.632 1714.14 392.673C1728.83 400.714 1745.33 404.735 1763.63 404.735C1797.32 404.735 1824.77 391.425 1845.99 364.806L1869.28 379.987C1858.33 396.347 1843.63 409.033 1825.19 418.044C1806.89 426.918 1785.95 431.354 1762.39 431.354C1726.48 431.354 1696.6 419.916 1672.75 397.04C1649.05 374.164 1637.19 346.367 1637.19 313.647C1637.19 291.464 1642.74 270.945 1653.83 252.09C1665.06 233.096 1680.31 218.331 1699.58 207.794C1718.99 197.119 1740.76 191.781 1764.88 191.781C1779.85 191.781 1794.34 194.068 1808.35 198.644C1822.49 203.219 1834.48 209.25 1844.32 216.736C1854.17 224.084 1862.48 233.512 1869.28 245.019ZM2033.15 191.781C2068.23 191.781 2097.34 204.467 2120.5 229.838C2141.43 253.13 2151.9 280.65 2151.9 312.399C2151.9 344.148 2140.81 371.946 2118.63 395.792C2096.44 419.5 2067.95 431.354 2033.15 431.354C1998.22 431.354 1969.66 419.5 1947.47 395.792C1925.43 371.946 1914.41 344.148 1914.41 312.399C1914.41 280.789 1924.87 253.338 1945.81 230.046C1968.96 204.536 1998.08 191.781 2033.15 191.781ZM2033.15 220.48C2008.89 220.48 1988.03 229.491 1970.56 247.515C1953.09 265.538 1944.35 287.305 1944.35 312.815C1944.35 329.314 1948.3 344.772 1956.21 359.191C1964.25 373.471 1975.06 384.493 1988.65 392.257C2002.24 399.882 2017.07 403.695 2033.15 403.695C2049.51 403.695 2064.42 399.882 2077.87 392.257C2091.45 384.493 2102.2 373.471 2110.1 359.191C2118 344.772 2121.95 329.314 2121.95 312.815C2121.95 287.305 2113.22 265.538 2095.75 247.515C2078.28 229.491 2057.42 220.48 2033.15 220.48ZM2194.95 326.749V299.298C2197.17 285.572 2200.36 274.411 2204.51 265.816C2214.22 241.969 2227.25 224.5 2243.61 213.409C2259.97 202.318 2273.56 196.772 2284.37 196.772C2292.41 196.772 2301.01 199.406 2310.16 204.675L2294.98 229.214C2282.08 224.5 2269.26 228.313 2256.51 240.652C2243.89 252.991 2235.15 266.44 2230.3 280.997C2226.7 293.891 2224.89 318.084 2224.89 353.576V430.73H2194.95V326.749ZM2417.26 398.912C2402.84 406.676 2388.7 407.3 2374.84 400.784C2357.92 387.89 2349.88 369.52 2350.71 345.673V249.179H2404.78V224.015H2350.5V113.795H2320.97V350.664C2320.7 367.302 2324.51 382.552 2332.41 396.416C2345.44 418.46 2363.19 430.106 2385.65 431.354C2397.57 431.77 2411.16 429.066 2426.41 423.244C2424.05 417.421 2421 409.31 2417.26 398.912ZM2665.15 350.041L2689.69 363.142C2681.79 379.086 2672.5 391.91 2661.82 401.615C2651.15 411.32 2639.16 418.738 2625.85 423.867C2612.54 428.859 2597.49 431.354 2580.72 431.354C2543.56 431.354 2514.52 419.223 2493.58 394.961C2472.65 370.56 2462.18 343.039 2462.18 312.399C2462.18 283.423 2471.05 257.636 2488.8 235.037C2511.26 206.2 2541.41 191.781 2579.26 191.781C2617.94 191.781 2648.93 206.546 2672.22 236.077C2688.72 256.873 2697.04 282.799 2697.18 313.855H2492.34C2492.89 340.474 2501.35 362.31 2517.71 379.363C2534.07 396.278 2554.24 404.735 2578.22 404.735C2589.87 404.735 2601.17 402.725 2612.12 398.704C2623.07 394.545 2632.36 389.138 2639.99 382.483C2647.75 375.828 2656.14 365.014 2665.15 350.041ZM2665.15 288.692C2661.27 273.025 2655.59 260.547 2648.1 251.258C2640.61 241.831 2630.7 234.275 2618.36 228.59C2606.02 222.767 2593.06 219.856 2579.47 219.856C2557.15 219.856 2537.95 227.065 2521.87 241.484C2510.22 252.021 2501.42 267.757 2495.45 288.692H2665.15ZM2726.09 203.011H2761.23L2821.54 287.652L2882.06 203.011H2917.2L2839.01 311.36L2926.98 431.146H2891.42L2821.54 335.275L2752.7 431.146H2717.77L2804.07 311.36L2726.09 203.011Z" fill="#1E1E1E"/>
<path d="M776.433 430.73H773.433V433.73H776.433V430.73ZM776.433 122.321V119.321H773.433V122.321H776.433ZM783.088 122.321L785.353 120.354L784.456 119.321H783.088V122.321ZM988.14 358.359L985.875 360.327L991.14 366.387V358.359H988.14ZM988.14 122.321V119.321H985.14V122.321H988.14ZM1018.5 122.321H1021.5V119.321H1018.5V122.321ZM1018.5 430.73V433.73H1021.5V430.73H1018.5ZM1011.43 430.73L1009.17 432.7L1010.07 433.73H1011.43V430.73ZM808.46 197.604L810.722 195.634L805.46 189.589V197.604H808.46ZM808.46 430.73V433.73H811.46V430.73H808.46ZM779.433 430.73V122.321H773.433V430.73H779.433ZM776.433 125.321H783.088V119.321H776.433V125.321ZM780.823 124.289L985.875 360.327L990.404 356.392L785.353 120.354L780.823 124.289ZM991.14 358.359V122.321H985.14V358.359H991.14ZM988.14 125.321H1018.5V119.321H988.14V125.321ZM1015.5 122.321V430.73H1021.5V122.321H1015.5ZM1018.5 427.73H1011.43V433.73H1018.5V427.73ZM1013.69 428.76L810.722 195.634L806.197 199.574L1009.17 432.7L1013.69 428.76ZM805.46 197.604V430.73H811.46V197.604H805.46ZM808.46 427.73H776.433V433.73H808.46V427.73ZM1280.54 350.041L1281.95 347.394L1279.43 346.052L1277.96 348.494L1280.54 350.041ZM1305.07 363.142L1307.76 364.475L1309.06 361.867L1306.49 360.496L1305.07 363.142ZM1277.21 401.615L1279.23 403.835L1277.21 401.615ZM1241.23 423.867L1242.28 426.676L1242.3 426.672L1242.31 426.667L1241.23 423.867ZM1108.97 394.961L1106.69 396.914L1106.69 396.92L1108.97 394.961ZM1104.18 235.037L1106.54 236.89L1106.55 236.881L1104.18 235.037ZM1287.61 236.077L1285.25 237.935L1285.26 237.941L1287.61 236.077ZM1312.56 313.855V316.855H1315.58L1315.56 313.842L1312.56 313.855ZM1107.72 313.855V310.855H1104.66L1104.72 313.918L1107.72 313.855ZM1133.09 379.363L1130.92 381.44L1130.93 381.449L1133.09 379.363ZM1227.5 398.704L1228.54 401.52L1228.55 401.514L1228.57 401.508L1227.5 398.704ZM1255.37 382.483L1253.42 380.205L1253.41 380.214L1253.4 380.223L1255.37 382.483ZM1280.54 288.692V291.692H1284.37L1283.45 287.97L1280.54 288.692ZM1263.48 251.258L1261.13 253.124L1261.14 253.132L1261.15 253.141L1263.48 251.258ZM1233.74 228.59L1232.46 231.303L1232.48 231.309L1232.49 231.315L1233.74 228.59ZM1137.25 241.484L1135.25 239.25L1135.24 239.259L1137.25 241.484ZM1110.84 288.692L1107.95 287.87L1106.86 291.692H1110.84V288.692ZM1279.12 352.687L1303.66 365.789L1306.49 360.496L1281.95 347.394L1279.12 352.687ZM1302.39 361.81C1294.61 377.494 1285.53 389.993 1275.19 399.396L1279.23 403.835C1290.23 393.828 1299.73 380.678 1307.76 364.475L1302.39 361.81ZM1275.19 399.396C1264.79 408.854 1253.11 416.073 1240.15 421.068L1242.31 426.667C1255.97 421.402 1268.28 413.787 1279.23 403.835L1275.19 399.396ZM1240.18 421.058C1227.26 425.903 1212.58 428.354 1196.1 428.354V434.354C1213.17 434.354 1228.58 431.814 1242.28 426.676L1240.18 421.058ZM1196.1 428.354C1159.66 428.354 1131.51 416.494 1111.24 393.001L1106.69 396.92C1128.29 421.952 1158.23 434.354 1196.1 434.354V428.354ZM1111.24 393.007C1090.75 369.121 1080.56 342.285 1080.56 312.399H1074.56C1074.56 343.793 1085.31 371.998 1106.69 396.914L1111.24 393.007ZM1080.56 312.399C1080.56 284.089 1089.21 258.955 1106.54 236.89L1101.82 233.184C1083.66 256.316 1074.56 282.757 1074.56 312.399H1080.56ZM1106.55 236.881C1128.42 208.803 1157.68 194.781 1194.65 194.781V188.781C1155.91 188.781 1124.87 203.597 1101.82 233.194L1106.55 236.881ZM1194.65 194.781C1232.44 194.781 1262.55 209.149 1285.25 237.935L1289.96 234.219C1266.08 203.944 1234.22 188.781 1194.65 188.781V194.781ZM1285.26 237.941C1301.27 258.125 1309.43 283.366 1309.56 313.868L1315.56 313.842C1315.42 282.233 1306.94 255.622 1289.96 234.212L1285.26 237.941ZM1312.56 310.855H1107.72V316.855H1312.56V310.855ZM1104.72 313.918C1105.29 341.186 1113.98 363.774 1130.92 381.44L1135.25 377.286C1119.48 360.846 1111.26 339.762 1110.72 313.793L1104.72 313.918ZM1130.93 381.449C1147.87 398.96 1168.83 407.735 1193.61 407.735V401.735C1170.42 401.735 1151.03 393.595 1135.25 377.278L1130.93 381.449ZM1193.61 407.735C1205.61 407.735 1217.26 405.662 1228.54 401.52L1226.47 395.888C1215.85 399.787 1204.9 401.735 1193.61 401.735V407.735ZM1228.57 401.508C1239.8 397.243 1249.41 391.665 1257.34 384.743L1253.4 380.223C1246.08 386.61 1237.11 391.847 1226.44 395.899L1228.57 401.508ZM1257.32 384.761C1265.44 377.8 1274.03 366.67 1283.11 351.588L1277.96 348.494C1269.02 363.358 1260.83 373.856 1253.42 380.205L1257.32 384.761ZM1283.45 287.97C1279.5 272.021 1273.66 259.103 1265.82 249.376L1261.15 253.141C1268.28 261.992 1273.81 274.029 1277.62 289.413L1283.45 287.97ZM1265.83 249.393C1258.02 239.552 1247.71 231.721 1235 225.866L1232.49 231.315C1244.46 236.828 1253.97 244.109 1261.13 253.124L1265.83 249.393ZM1235.02 225.877C1222.29 219.866 1208.89 216.856 1194.85 216.856V222.856C1208 222.856 1220.52 225.669 1232.46 231.303L1235.02 225.877ZM1194.85 216.856C1171.82 216.856 1151.9 224.32 1135.25 239.25L1139.25 243.718C1154.76 229.81 1173.25 222.856 1194.85 222.856V216.856ZM1135.24 239.259C1123.04 250.292 1114.01 266.595 1107.95 287.87L1113.72 289.513C1119.59 268.918 1128.16 253.75 1139.26 243.709L1135.24 239.259ZM1110.84 291.692H1280.54V285.692H1110.84V291.692ZM1562.33 229.838L1564.56 227.833L1564.55 227.824L1564.54 227.816L1562.33 229.838ZM1560.45 395.792L1562.64 397.842L1562.65 397.836L1560.45 395.792ZM1389.3 395.792L1387.1 397.829L1387.1 397.836L1387.11 397.842L1389.3 395.792ZM1387.64 230.046L1385.41 228.03L1385.41 228.035L1385.41 228.041L1387.64 230.046ZM1412.38 247.515L1414.54 249.603L1412.38 247.515ZM1398.03 359.191L1395.4 360.633L1395.41 360.648L1395.42 360.663L1398.03 359.191ZM1430.48 392.257L1428.99 394.862L1429 394.868L1429.01 394.873L1430.48 392.257ZM1519.69 392.257L1521.17 394.867L1521.18 394.862L1519.69 392.257ZM1551.93 359.191L1554.55 360.644L1554.56 360.633L1551.93 359.191ZM1537.58 247.515L1535.42 249.603L1537.58 247.515ZM1474.98 194.781C1509.23 194.781 1537.54 207.127 1560.11 231.86L1564.54 227.816C1540.81 201.807 1510.88 188.781 1474.98 188.781V194.781ZM1560.09 231.843C1580.53 254.576 1590.73 281.379 1590.73 312.399H1596.73C1596.73 279.921 1585.99 251.683 1564.56 227.833L1560.09 231.843ZM1590.73 312.399C1590.73 343.369 1579.94 370.442 1558.26 393.749L1562.65 397.836C1585.33 373.45 1596.73 344.928 1596.73 312.399H1590.73ZM1558.26 393.743C1536.69 416.797 1509.02 428.354 1474.98 428.354V434.354C1510.54 434.354 1539.85 422.203 1562.64 397.842L1558.26 393.743ZM1474.98 428.354C1440.8 428.354 1413.06 416.795 1391.49 393.743L1387.11 397.842C1409.91 422.206 1439.28 434.354 1474.98 434.354V428.354ZM1391.5 393.756C1369.96 370.45 1359.23 343.375 1359.23 312.399H1353.23C1353.23 344.922 1364.55 373.442 1387.1 397.829L1391.5 393.756ZM1359.23 312.399C1359.23 281.522 1369.43 254.787 1389.87 232.051L1385.41 228.041C1363.97 251.889 1353.23 280.056 1353.23 312.399H1359.23ZM1389.86 232.062C1412.43 207.191 1440.73 194.781 1474.98 194.781V188.781C1439.08 188.781 1409.15 201.88 1385.41 228.03L1389.86 232.062ZM1474.98 217.48C1449.88 217.48 1428.24 226.843 1410.23 245.427L1414.54 249.603C1431.46 232.14 1451.56 223.48 1474.98 223.48V217.48ZM1410.23 245.427C1392.21 264.02 1383.18 286.54 1383.18 312.815H1389.18C1389.18 288.07 1397.62 267.056 1414.54 249.603L1410.23 245.427ZM1383.18 312.815C1383.18 329.816 1387.26 345.771 1395.4 360.633L1400.67 357.749C1393.01 343.774 1389.18 328.811 1389.18 312.815H1383.18ZM1395.42 360.663C1403.71 375.392 1414.91 386.816 1428.99 394.862L1431.97 389.652C1418.87 382.17 1408.44 371.55 1400.65 357.719L1395.42 360.663ZM1429.01 394.873C1443.06 402.759 1458.4 406.695 1474.98 406.695V400.695C1459.4 400.695 1445.07 397.006 1431.94 389.641L1429.01 394.873ZM1474.98 406.695C1491.83 406.695 1507.25 402.763 1521.17 394.867L1518.21 389.647C1505.24 397.002 1490.85 400.695 1474.98 400.695V406.695ZM1521.18 394.862C1535.27 386.813 1546.4 375.383 1554.55 360.644L1549.3 357.738C1541.65 371.559 1531.29 382.173 1518.2 389.652L1521.18 394.862ZM1554.56 360.633C1562.7 345.771 1566.78 329.816 1566.78 312.815H1560.78C1560.78 328.811 1556.96 343.774 1549.3 357.749L1554.56 360.633ZM1566.78 312.815C1566.78 286.54 1557.75 264.02 1539.73 245.427L1535.42 249.603C1552.34 267.056 1560.78 288.07 1560.78 312.815H1566.78ZM1539.73 245.427C1521.72 226.843 1500.09 217.48 1474.98 217.48V223.48C1498.4 223.48 1518.5 232.14 1535.42 249.603L1539.73 245.427ZM1869.28 245.019L1870.87 247.563L1873.35 246.013L1871.86 243.494L1869.28 245.019ZM1845.99 259.577L1843.58 261.373L1845.24 263.584L1847.58 262.121L1845.99 259.577ZM1694.17 246.059L1692.08 243.906L1692.08 243.914L1694.17 246.059ZM1679.41 358.567L1676.8 360.053L1676.81 360.063L1679.41 358.567ZM1845.99 364.806L1847.62 362.293L1845.34 360.804L1843.64 362.936L1845.99 364.806ZM1869.28 379.987L1871.77 381.656L1873.46 379.132L1870.92 377.474L1869.28 379.987ZM1825.19 418.044L1826.5 420.744L1826.51 420.74L1825.19 418.044ZM1672.75 397.04L1670.67 399.199L1670.68 399.205L1672.75 397.04ZM1653.83 252.09L1651.25 250.563L1651.24 250.569L1653.83 252.09ZM1699.58 207.794L1701.02 210.426L1701.03 210.423L1699.58 207.794ZM1808.35 198.644L1807.41 201.495L1807.42 201.498L1808.35 198.644ZM1844.32 216.736L1842.51 219.124L1842.52 219.132L1842.53 219.14L1844.32 216.736ZM1867.69 242.475L1844.4 257.033L1847.58 262.121L1870.87 247.563L1867.69 242.475ZM1848.39 257.781C1827.7 230.095 1799.34 216.232 1763.63 216.232V222.232C1797.53 222.232 1824.07 235.266 1843.58 261.373L1848.39 257.781ZM1763.63 216.232C1735.06 216.232 1711.13 225.429 1692.08 243.906L1696.26 248.213C1714.09 230.919 1736.47 222.232 1763.63 222.232V216.232ZM1692.08 243.914C1673.2 262.364 1663.72 284.905 1663.72 311.36H1669.72C1669.72 286.516 1678.55 265.524 1696.27 248.205L1692.08 243.914ZM1663.72 311.36C1663.72 328.532 1668.09 344.778 1676.8 360.053L1682.01 357.081C1673.81 342.687 1669.72 327.461 1669.72 311.36H1663.72ZM1676.81 360.063C1685.54 375.231 1697.51 386.995 1712.7 395.305L1715.58 390.041C1701.37 382.268 1690.19 371.295 1682.01 357.071L1676.81 360.063ZM1712.7 395.305C1727.88 403.609 1744.88 407.735 1763.63 407.735V401.735C1745.79 401.735 1729.79 397.819 1715.58 390.041L1712.7 395.305ZM1763.63 407.735C1798.25 407.735 1826.56 394.001 1848.33 366.676L1843.64 362.936C1822.99 388.85 1796.4 401.735 1763.63 401.735V407.735ZM1844.35 367.319L1867.64 382.501L1870.92 377.474L1847.62 362.293L1844.35 367.319ZM1866.79 378.318C1856.14 394.219 1841.86 406.56 1823.87 415.349L1826.51 420.74C1845.4 411.506 1860.51 398.475 1871.77 381.656L1866.79 378.318ZM1823.88 415.345C1806.05 423.991 1785.57 428.354 1762.39 428.354V434.354C1786.34 434.354 1807.73 429.844 1826.5 420.744L1823.88 415.345ZM1762.39 428.354C1727.18 428.354 1698.07 417.167 1674.83 394.875L1670.68 399.205C1695.13 422.666 1725.78 434.354 1762.39 434.354V428.354ZM1674.84 394.881C1651.71 372.566 1640.19 345.546 1640.19 313.647H1634.19C1634.19 347.187 1646.38 375.762 1670.67 399.199L1674.84 394.881ZM1640.19 313.647C1640.19 291.991 1645.6 271.999 1656.41 253.611L1651.24 250.569C1639.88 269.892 1634.19 290.937 1634.19 313.647H1640.19ZM1656.41 253.617C1667.37 235.085 1682.22 220.703 1701.02 210.426L1698.14 205.162C1678.39 215.959 1662.75 231.107 1651.25 250.563L1656.41 253.617ZM1701.03 210.423C1719.95 200.012 1741.22 194.781 1764.88 194.781V188.781C1740.3 188.781 1718.03 194.225 1698.13 205.165L1701.03 210.423ZM1764.88 194.781C1779.54 194.781 1793.72 197.02 1807.41 201.495L1809.28 195.792C1794.97 191.117 1780.17 188.781 1764.88 188.781V194.781ZM1807.42 201.498C1821.3 205.989 1832.98 211.879 1842.51 219.124L1846.14 214.349C1835.98 206.621 1823.67 200.448 1809.27 195.789L1807.42 201.498ZM1842.53 219.14C1852.03 226.23 1860.09 235.349 1866.69 246.544L1871.86 243.494C1864.88 231.675 1856.31 221.938 1846.12 214.332L1842.53 219.14ZM2120.5 229.838L2122.73 227.833L2122.72 227.824L2122.71 227.816L2120.5 229.838ZM2118.63 395.792L2120.82 397.842L2120.82 397.836L2118.63 395.792ZM1947.47 395.792L1945.27 397.829L1945.28 397.836L1945.28 397.842L1947.47 395.792ZM1945.81 230.046L1943.59 228.03L1943.58 228.035L1943.58 228.041L1945.81 230.046ZM1970.56 247.515L1972.71 249.603L1970.56 247.515ZM1956.21 359.191L1953.58 360.633L1953.58 360.648L1953.59 360.663L1956.21 359.191ZM1988.65 392.257L1987.16 394.862L1987.17 394.868L1987.18 394.873L1988.65 392.257ZM2077.87 392.257L2079.34 394.867L2079.35 394.862L2077.87 392.257ZM2110.1 359.191L2112.72 360.644L2112.73 360.633L2110.1 359.191ZM2095.75 247.515L2093.6 249.603L2095.75 247.515ZM2033.15 194.781C2067.41 194.781 2095.71 207.127 2118.28 231.86L2122.71 227.816C2098.98 201.807 2069.05 188.781 2033.15 188.781V194.781ZM2118.27 231.843C2138.7 254.576 2148.9 281.379 2148.9 312.399H2154.9C2154.9 279.921 2144.17 251.683 2122.73 227.833L2118.27 231.843ZM2148.9 312.399C2148.9 343.369 2138.11 370.442 2116.43 393.749L2120.82 397.836C2143.51 373.45 2154.9 344.928 2154.9 312.399H2148.9ZM2116.44 393.743C2094.86 416.797 2067.19 428.354 2033.15 428.354V434.354C2068.72 434.354 2098.02 422.203 2120.82 397.842L2116.44 393.743ZM2033.15 428.354C1998.97 428.354 1971.23 416.795 1949.66 393.743L1945.28 397.842C1968.08 422.206 1997.46 434.354 2033.15 434.354V428.354ZM1949.68 393.756C1928.13 370.45 1917.41 343.375 1917.41 312.399H1911.41C1911.41 344.922 1922.73 373.442 1945.27 397.829L1949.68 393.756ZM1917.41 312.399C1917.41 281.522 1927.6 254.787 1948.04 232.051L1943.58 228.041C1922.14 251.889 1911.41 280.056 1911.41 312.399H1917.41ZM1948.03 232.062C1970.6 207.191 1998.91 194.781 2033.15 194.781V188.781C1997.25 188.781 1967.32 201.88 1943.59 228.03L1948.03 232.062ZM2033.15 217.48C2008.05 217.48 1986.41 226.843 1968.4 245.427L1972.71 249.603C1989.64 232.14 2009.73 223.48 2033.15 223.48V217.48ZM1968.4 245.427C1950.38 264.02 1941.35 286.54 1941.35 312.815H1947.35C1947.35 288.07 1955.79 267.056 1972.71 249.603L1968.4 245.427ZM1941.35 312.815C1941.35 329.816 1945.43 345.771 1953.58 360.633L1958.84 357.749C1951.18 343.774 1947.35 328.811 1947.35 312.815H1941.35ZM1953.59 360.663C1961.89 375.392 1973.08 386.816 1987.16 394.862L1990.14 389.652C1977.04 382.17 1966.61 371.55 1958.82 357.719L1953.59 360.663ZM1987.18 394.873C2001.23 402.759 2016.57 406.695 2033.15 406.695V400.695C2017.57 400.695 2003.24 397.006 1990.12 389.641L1987.18 394.873ZM2033.15 406.695C2050 406.695 2065.42 402.763 2079.34 394.867L2076.39 389.647C2063.41 397.002 2049.03 400.695 2033.15 400.695V406.695ZM2079.35 394.862C2093.44 386.813 2104.57 375.383 2112.72 360.644L2107.47 357.738C2099.83 371.559 2089.47 382.173 2076.38 389.652L2079.35 394.862ZM2112.73 360.633C2120.88 345.771 2124.95 329.816 2124.95 312.815H2118.95C2118.95 328.811 2115.13 343.774 2107.47 357.749L2112.73 360.633ZM2124.95 312.815C2124.95 286.54 2115.93 264.02 2097.9 245.427L2093.6 249.603C2110.51 267.056 2118.95 288.07 2118.95 312.815H2124.95ZM2097.9 245.427C2079.89 226.843 2058.26 217.48 2033.15 217.48V223.48C2056.57 223.48 2076.67 232.14 2093.6 249.603L2097.9 245.427ZM2194.95 299.298L2191.99 298.819L2191.95 299.057V299.298H2194.95ZM2204.51 265.816L2207.21 267.122L2207.26 267.036L2207.29 266.946L2204.51 265.816ZM2243.61 213.409L2241.93 210.926L2243.61 213.409ZM2310.16 204.675L2312.71 206.253L2314.34 203.62L2311.66 202.075L2310.16 204.675ZM2294.98 229.214L2293.95 232.032L2296.24 232.871L2297.53 230.792L2294.98 229.214ZM2256.51 240.652L2254.42 238.496L2254.41 238.502L2254.41 238.507L2256.51 240.652ZM2230.3 280.997L2227.46 280.048L2227.43 280.118L2227.41 280.189L2230.3 280.997ZM2224.89 430.73V433.73H2227.89V430.73H2224.89ZM2194.95 430.73H2191.95V433.73H2194.95V430.73ZM2197.95 326.749V299.298H2191.95V326.749H2197.95ZM2197.91 299.776C2200.1 286.22 2203.23 275.367 2207.21 267.122L2201.81 264.509C2197.48 273.456 2194.23 284.925 2191.99 298.819L2197.91 299.776ZM2207.29 266.946C2216.84 243.485 2229.55 226.564 2245.29 215.892L2241.93 210.926C2224.95 222.437 2211.6 240.453 2201.74 264.685L2207.29 266.946ZM2245.29 215.892C2261.51 204.897 2274.48 199.772 2284.37 199.772V193.772C2272.64 193.772 2258.43 199.739 2241.93 210.926L2245.29 215.892ZM2284.37 199.772C2291.75 199.772 2299.83 202.188 2308.66 207.274L2311.66 202.075C2302.19 196.624 2293.08 193.772 2284.37 193.772V199.772ZM2307.61 203.096L2292.43 227.636L2297.53 230.792L2312.71 206.253L2307.61 203.096ZM2296.01 226.397C2281.7 221.167 2267.71 225.636 2254.42 238.496L2258.59 242.808C2270.81 230.99 2282.46 227.834 2293.95 232.032L2296.01 226.397ZM2254.41 238.507C2241.5 251.13 2232.48 264.975 2227.46 280.048L2233.15 281.946C2237.83 267.904 2246.28 254.853 2258.6 242.797L2254.41 238.507ZM2227.41 280.189C2223.68 293.532 2221.89 318.117 2221.89 353.576H2227.89C2227.89 318.05 2229.71 294.249 2233.19 281.805L2227.41 280.189ZM2221.89 353.576V430.73H2227.89V353.576H2221.89ZM2224.89 427.73H2194.95V433.73H2224.89V427.73ZM2197.95 430.73V326.749H2191.95V430.73H2197.95ZM2417.26 398.912L2420.08 397.896L2418.9 394.62L2415.84 396.27L2417.26 398.912ZM2374.84 400.784L2373.02 403.169L2373.27 403.363L2373.56 403.499L2374.84 400.784ZM2350.71 345.673L2353.71 345.778L2353.71 345.726V345.673H2350.71ZM2350.71 249.179V246.179H2347.71V249.179H2350.71ZM2404.78 249.179V252.179H2407.78V249.179H2404.78ZM2404.78 224.015H2407.78V221.015H2404.78V224.015ZM2350.5 224.015H2347.5V227.015H2350.5V224.015ZM2350.5 113.795H2353.5V110.795H2350.5V113.795ZM2320.97 113.795V110.795H2317.97V113.795H2320.97ZM2320.97 350.664L2323.97 350.714L2323.97 350.689V350.664H2320.97ZM2332.41 396.416L2329.81 397.902L2329.82 397.923L2329.83 397.943L2332.41 396.416ZM2385.65 431.354L2385.48 434.349L2385.51 434.351L2385.55 434.352L2385.65 431.354ZM2426.41 423.244L2427.48 426.046L2430.34 424.955L2429.19 422.118L2426.41 423.244ZM2415.84 396.27C2402.19 403.62 2389.05 404.149 2376.11 398.068L2373.56 403.499C2388.35 410.451 2403.49 409.732 2418.68 401.553L2415.84 396.27ZM2376.65 398.398C2360.62 386.173 2352.91 368.79 2353.71 345.778L2347.71 345.569C2346.85 370.25 2355.23 389.607 2373.02 403.169L2376.65 398.398ZM2353.71 345.673V249.179H2347.71V345.673H2353.71ZM2350.71 252.179H2404.78V246.179H2350.71V252.179ZM2407.78 249.179V224.015H2401.78V249.179H2407.78ZM2404.78 221.015H2350.5V227.015H2404.78V221.015ZM2353.5 224.015V113.795H2347.5V224.015H2353.5ZM2350.5 110.795H2320.97V116.795H2350.5V110.795ZM2317.97 113.795V350.664H2323.97V113.795H2317.97ZM2317.97 350.614C2317.69 367.765 2321.62 383.55 2329.81 397.902L2335.02 394.931C2327.39 381.554 2323.7 366.838 2323.97 350.714L2317.97 350.614ZM2329.83 397.943C2343.29 420.71 2361.87 433.038 2385.48 434.349L2385.82 428.359C2364.51 427.175 2347.6 416.211 2334.99 394.89L2329.83 397.943ZM2385.55 434.352C2397.99 434.786 2411.98 431.963 2427.48 426.046L2425.34 420.441C2410.34 426.17 2397.16 428.754 2385.75 428.356L2385.55 434.352ZM2429.19 422.118C2426.86 416.348 2423.82 408.28 2420.08 397.896L2414.44 399.928C2418.19 410.34 2421.25 418.493 2423.63 424.369L2429.19 422.118ZM2665.15 350.041L2666.57 347.394L2664.05 346.052L2662.58 348.494L2665.15 350.041ZM2689.69 363.142L2692.38 364.475L2693.67 361.867L2691.1 360.496L2689.69 363.142ZM2661.82 401.615L2663.84 403.835L2661.82 401.615ZM2625.85 423.867L2626.9 426.676L2626.91 426.672L2626.93 426.667L2625.85 423.867ZM2493.58 394.961L2491.31 396.914L2491.31 396.92L2493.58 394.961ZM2488.8 235.037L2491.16 236.89L2491.17 236.881L2488.8 235.037ZM2672.22 236.077L2669.87 237.935L2669.87 237.941L2672.22 236.077ZM2697.18 313.855V316.855H2700.19L2700.18 313.842L2697.18 313.855ZM2492.34 313.855V310.855H2489.27L2489.34 313.918L2492.34 313.855ZM2517.71 379.363L2515.54 381.44L2515.55 381.449L2517.71 379.363ZM2612.12 398.704L2613.16 401.52L2613.17 401.514L2613.19 401.508L2612.12 398.704ZM2639.99 382.483L2638.04 380.205L2638.03 380.214L2638.02 380.223L2639.99 382.483ZM2665.15 288.692V291.692H2668.99L2668.06 287.97L2665.15 288.692ZM2648.1 251.258L2645.75 253.124L2645.76 253.132L2645.76 253.141L2648.1 251.258ZM2618.36 228.59L2617.08 231.303L2617.09 231.309L2617.11 231.315L2618.36 228.59ZM2521.87 241.484L2519.86 239.25L2519.85 239.259L2521.87 241.484ZM2495.45 288.692L2492.57 287.87L2491.48 291.692H2495.45V288.692ZM2663.74 352.687L2688.28 365.789L2691.1 360.496L2666.57 347.394L2663.74 352.687ZM2687 361.81C2679.23 377.494 2670.15 389.993 2659.81 399.396L2663.84 403.835C2674.85 393.828 2684.35 380.678 2692.38 364.475L2687 361.81ZM2659.81 399.396C2649.4 408.854 2637.73 416.073 2624.77 421.068L2626.93 426.667C2640.59 421.402 2652.9 413.787 2663.84 403.835L2659.81 399.396ZM2624.79 421.058C2611.88 425.903 2597.2 428.354 2580.72 428.354V434.354C2597.79 434.354 2613.2 431.814 2626.9 426.676L2624.79 421.058ZM2580.72 428.354C2544.28 428.354 2516.13 416.494 2495.85 393.001L2491.31 396.92C2512.91 421.952 2542.85 434.354 2580.72 434.354V428.354ZM2495.86 393.007C2475.37 369.121 2465.18 342.285 2465.18 312.399H2459.18C2459.18 343.793 2469.93 371.998 2491.31 396.914L2495.86 393.007ZM2465.18 312.399C2465.18 284.089 2473.83 258.955 2491.16 236.89L2486.44 233.184C2468.28 256.316 2459.18 282.757 2459.18 312.399H2465.18ZM2491.17 236.881C2513.03 208.803 2542.3 194.781 2579.26 194.781V188.781C2540.53 188.781 2509.48 203.597 2486.43 233.194L2491.17 236.881ZM2579.26 194.781C2617.06 194.781 2647.16 209.149 2669.87 237.935L2674.58 234.219C2650.7 203.944 2618.83 188.781 2579.26 188.781V194.781ZM2669.87 237.941C2685.88 258.125 2694.04 283.366 2694.18 313.868L2700.18 313.842C2700.04 282.233 2691.56 255.622 2674.57 234.212L2669.87 237.941ZM2697.18 310.855H2492.34V316.855H2697.18V310.855ZM2489.34 313.918C2489.9 341.186 2498.59 363.774 2515.54 381.44L2519.87 377.286C2504.1 360.846 2495.88 339.762 2495.33 313.793L2489.34 313.918ZM2515.55 381.449C2532.49 398.96 2553.44 407.735 2578.22 407.735V401.735C2555.03 401.735 2535.65 393.595 2519.86 377.278L2515.55 381.449ZM2578.22 407.735C2590.22 407.735 2601.87 405.662 2613.16 401.52L2611.09 395.888C2600.47 399.787 2589.52 401.735 2578.22 401.735V407.735ZM2613.19 401.508C2624.42 397.243 2634.03 391.665 2641.96 384.743L2638.02 380.223C2630.7 386.61 2621.73 391.847 2611.06 395.899L2613.19 401.508ZM2641.94 384.761C2650.06 377.8 2658.65 366.67 2667.72 351.588L2662.58 348.494C2653.64 363.358 2645.44 373.856 2638.04 380.205L2641.94 384.761ZM2668.06 287.97C2664.11 272.021 2658.27 259.103 2650.43 249.376L2645.76 253.141C2652.9 261.992 2658.43 274.029 2662.24 289.413L2668.06 287.97ZM2650.45 249.393C2642.63 239.552 2632.33 231.721 2619.62 225.866L2617.11 231.315C2629.07 236.828 2638.59 244.109 2645.75 253.124L2650.45 249.393ZM2619.64 225.877C2606.9 219.866 2593.5 216.856 2579.47 216.856V222.856C2592.61 222.856 2605.14 225.669 2617.08 231.303L2619.64 225.877ZM2579.47 216.856C2556.44 216.856 2536.52 224.32 2519.86 239.25L2523.87 243.718C2539.38 229.81 2557.86 222.856 2579.47 222.856V216.856ZM2519.85 239.259C2507.66 250.292 2498.63 266.595 2492.57 287.87L2498.34 289.513C2504.2 268.918 2512.78 253.75 2523.88 243.709L2519.85 239.259ZM2495.45 291.692H2665.15V285.692H2495.45V291.692ZM2726.09 203.011V200.011H2720.23L2723.65 204.763L2726.09 203.011ZM2761.23 203.011L2763.67 201.27L2762.78 200.011H2761.23V203.011ZM2821.54 287.652L2819.1 289.393L2821.54 292.816L2823.98 289.397L2821.54 287.652ZM2882.06 203.011V200.011H2880.51L2879.62 201.266L2882.06 203.011ZM2917.2 203.011L2919.64 204.766L2923.07 200.011H2917.2V203.011ZM2839.01 311.36L2836.58 309.604L2835.3 311.375L2836.59 313.135L2839.01 311.36ZM2926.98 431.146V434.146H2932.9L2929.4 429.37L2926.98 431.146ZM2891.42 431.146L2888.99 432.913L2889.89 434.146H2891.42V431.146ZM2821.54 335.275L2823.96 333.508L2821.52 330.157L2819.1 333.526L2821.54 335.275ZM2752.7 431.146V434.146H2754.24L2755.14 432.896L2752.7 431.146ZM2717.77 431.146L2715.33 429.392L2711.91 434.146H2717.77V431.146ZM2804.07 311.36L2806.51 313.113L2807.77 311.36L2806.51 309.607L2804.07 311.36ZM2726.09 206.011H2761.23V200.011H2726.09V206.011ZM2758.79 204.752L2819.1 289.393L2823.98 285.911L2763.67 201.27L2758.79 204.752ZM2823.98 289.397L2884.5 204.756L2879.62 201.266L2819.1 285.907L2823.98 289.397ZM2882.06 206.011H2917.2V200.011H2882.06V206.011ZM2914.77 201.255L2836.58 309.604L2841.44 313.115L2919.64 204.766L2914.77 201.255ZM2836.59 313.135L2924.56 432.922L2929.4 429.37L2841.43 309.584L2836.59 313.135ZM2926.98 428.146H2891.42V434.146H2926.98V428.146ZM2893.84 429.379L2823.96 333.508L2819.12 337.042L2888.99 432.913L2893.84 429.379ZM2819.1 333.526L2750.27 429.396L2755.14 432.896L2823.98 337.025L2819.1 333.526ZM2752.7 428.146H2717.77V434.146H2752.7V428.146ZM2720.2 432.9L2806.51 313.113L2801.64 309.606L2715.33 429.392L2720.2 432.9ZM2806.51 309.607L2728.52 201.258L2723.65 204.763L2801.64 313.112L2806.51 309.607Z" fill="#1E1E1E"/>
<path d="M1549.42 519.607V509.061H1609.04V519.607H1584.72V617.679H1573.66V519.607H1549.42ZM1647.14 509.061H1709.39V519.754H1657.98V553.738H1689.32V564.285H1657.98V606.912H1708.95V617.679H1647.14V509.061ZM1854.57 529.861L1845.93 536.307C1841.24 530.154 1835.58 525.516 1828.94 522.391C1822.35 519.217 1815.1 517.63 1807.19 517.63C1798.49 517.63 1790.46 519.705 1783.09 523.855C1775.72 528.006 1769.98 533.597 1765.88 540.628C1761.82 547.61 1759.8 555.496 1759.8 564.285C1759.8 577.518 1764.34 588.187 1773.42 596.292C1782.5 604.349 1793.95 608.377 1807.77 608.377C1823.01 608.377 1835.73 602.42 1845.93 590.506L1854.57 597.024C1849.15 603.909 1842.39 609.231 1834.29 612.991C1826.18 616.751 1817.15 618.631 1807.19 618.631C1788.14 618.631 1773.13 612.308 1762.14 599.661C1752.96 588.968 1748.37 576.858 1748.37 563.333C1748.37 547.464 1753.94 534.085 1765.07 523.196C1776.25 512.308 1790.22 506.863 1806.97 506.863C1817.12 506.863 1826.28 508.89 1834.43 512.942C1842.63 516.946 1849.35 522.586 1854.57 529.861ZM1898.61 509.061H1909.52V554.617H1964.82V509.061H1975.66V617.679H1964.82V565.311H1909.52V617.679H1898.61V509.061ZM2024.45 617.679V509.061H2026.79L2099.01 592.19V509.061H2109.71V617.679H2107.21L2035.73 535.574V617.679H2024.45ZM2210.35 507.156C2226.76 507.156 2240.48 512.649 2251.52 523.636C2262.6 534.622 2268.14 548.147 2268.14 564.212C2268.14 580.081 2262.62 593.118 2251.59 603.323C2240.55 613.528 2227.1 618.631 2211.23 618.631C2195.12 618.631 2181.52 613.138 2170.44 602.151C2159.35 591.116 2153.81 578.641 2153.81 564.725C2153.81 554.324 2156.33 544.656 2161.36 535.721C2166.38 526.785 2173.27 519.803 2182.01 514.773C2190.75 509.695 2200.2 507.156 2210.35 507.156ZM2210.79 517.85C2202.79 517.85 2195.17 519.949 2187.94 524.148C2180.76 528.299 2175.17 533.938 2171.17 541.067C2167.17 548.147 2165.16 556.033 2165.16 564.725C2165.16 577.615 2169.61 588.064 2178.49 596.072C2187.43 604.08 2198.2 608.084 2210.79 608.084C2219.19 608.084 2226.98 606.033 2234.16 601.932C2241.34 597.83 2246.93 592.264 2250.93 585.232C2254.93 578.152 2256.94 571.146 2256.94 564.212C2256.94 555.618 2254.93 547.83 2250.93 540.848C2246.93 533.865 2241.29 528.299 2234.01 524.148C2226.74 519.949 2219 517.85 2210.79 517.85ZM2312.25 508.768H2323.16V606.912H2364.91V617.386H2312.25V508.768ZM2456.33 507.156C2472.74 507.156 2486.46 512.649 2497.49 523.636C2508.58 534.622 2514.12 548.147 2514.12 564.212C2514.12 580.081 2508.6 593.118 2497.57 603.323C2486.53 613.528 2473.08 618.631 2457.21 618.631C2441.1 618.631 2427.5 613.138 2416.41 602.151C2405.33 591.116 2399.79 578.641 2399.79 564.725C2399.79 554.324 2402.3 544.656 2407.33 535.721C2412.36 526.785 2419.25 519.803 2427.99 514.773C2436.73 509.695 2446.17 507.156 2456.33 507.156ZM2456.77 517.85C2448.76 517.85 2441.15 519.949 2433.92 524.148C2426.74 528.299 2421.15 533.938 2417.15 541.067C2413.14 548.147 2411.14 556.033 2411.14 564.725C2411.14 577.615 2415.58 588.064 2424.47 596.072C2433.41 604.08 2444.17 608.084 2456.77 608.084C2465.17 608.084 2472.96 606.033 2480.13 601.932C2487.31 597.83 2492.9 592.264 2496.91 585.232C2500.91 578.152 2502.91 571.146 2502.91 564.212C2502.91 555.618 2500.91 547.83 2496.91 540.848C2492.9 533.865 2487.26 528.299 2479.99 524.148C2472.71 519.949 2464.97 517.85 2456.77 517.85ZM2663.04 527.884L2654.61 535.867C2648.56 529.91 2641.92 525.394 2634.69 522.317C2627.51 519.241 2620.48 517.703 2613.6 517.703C2605.1 517.703 2597 519.803 2589.28 524.002C2581.61 528.201 2575.66 533.865 2571.41 540.994C2567.16 548.123 2565.04 554.91 2565.04 561.355C2565.04 569.559 2567.23 577.347 2571.63 584.72C2576.02 592.044 2582.08 597.806 2589.79 602.005C2597.56 606.155 2606.03 608.23 2615.21 608.23C2626.34 608.23 2635.76 605.081 2643.48 598.782C2651.24 592.483 2655.86 584.329 2657.32 574.319H2622.68V563.846H2669.41C2669.31 580.643 2664.33 593.973 2654.47 603.836C2644.65 613.699 2631.44 618.631 2614.84 618.631C2594.82 618.631 2578.95 611.795 2567.23 598.123C2558.2 587.576 2553.68 575.394 2553.68 561.575C2553.68 551.272 2556.25 542.093 2561.38 534.036C2566.55 525.979 2573.66 519.437 2582.69 514.407C2591.72 509.378 2601.93 506.863 2613.3 506.863C2622.48 506.863 2631.13 508.548 2639.23 511.917C2647.34 515.237 2655.27 520.56 2663.04 527.884ZM2710.88 509.061H2721.72V617.679H2710.88V509.061ZM2769.12 509.061H2831.38V519.754H2779.96V553.738H2811.31V564.285H2779.96V606.912H2830.94V617.679H2769.12V509.061ZM2866.4 595.706L2875.63 590.14C2882.12 602.103 2889.62 608.084 2898.11 608.084C2901.78 608.084 2905.22 607.229 2908.44 605.521C2911.66 603.812 2914.1 601.541 2915.76 598.709C2917.42 595.877 2918.25 592.85 2918.25 589.627C2918.25 586.014 2917.03 582.449 2914.59 578.934C2911.17 574.1 2904.95 569.168 2895.92 564.139C2886.83 557.303 2881.22 552.347 2879.07 549.271C2875.21 544.192 2873.28 538.65 2873.28 532.645C2873.28 527.908 2874.41 523.611 2876.65 519.754C2878.9 515.896 2882.07 512.845 2886.17 510.599C2890.33 508.304 2894.82 507.156 2899.65 507.156C2904.73 507.156 2909.49 508.45 2913.93 511.038C2918.38 513.577 2923.09 518.24 2928.07 525.027L2919.21 531.692C2915.15 526.321 2911.69 522.781 2908.81 521.072C2905.93 519.314 2902.78 518.436 2899.36 518.436C2895.01 518.436 2891.45 519.778 2888.67 522.464C2885.88 525.101 2884.49 528.348 2884.49 532.205C2884.49 534.549 2884.98 536.844 2885.96 539.09C2886.93 541.336 2888.74 543.729 2891.38 546.268C2892.79 547.684 2897.48 551.321 2905.44 557.181C2914.81 564.114 2921.23 569.852 2924.7 574.393C2928.22 578.934 2929.97 583.914 2929.97 589.334C2929.97 597.244 2926.97 604.104 2920.96 609.915C2915.01 615.726 2907.76 618.631 2899.21 618.631C2892.57 618.631 2886.57 616.873 2881.19 613.357C2875.82 609.842 2870.89 603.958 2866.4 595.706Z" fill="#1851EF"/>
<path d="M1549.42 519.607H1547.42V521.607H1549.42V519.607ZM1549.42 509.061V507.061H1547.42V509.061H1549.42ZM1609.04 509.061H1611.04V507.061H1609.04V509.061ZM1609.04 519.607V521.607H1611.04V519.607H1609.04ZM1584.72 519.607V517.607H1582.72V519.607H1584.72ZM1584.72 617.679V619.679H1586.72V617.679H1584.72ZM1573.66 617.679H1571.66V619.679H1573.66V617.679ZM1573.66 519.607H1575.66V517.607H1573.66V519.607ZM1551.42 519.607V509.061H1547.42V519.607H1551.42ZM1549.42 511.061H1609.04V507.061H1549.42V511.061ZM1607.04 509.061V519.607H1611.04V509.061H1607.04ZM1609.04 517.607H1584.72V521.607H1609.04V517.607ZM1582.72 519.607V617.679H1586.72V519.607H1582.72ZM1584.72 615.679H1573.66V619.679H1584.72V615.679ZM1575.66 617.679V519.607H1571.66V617.679H1575.66ZM1573.66 517.607H1549.42V521.607H1573.66V517.607ZM1647.14 509.061V507.061H1645.14V509.061H1647.14ZM1709.39 509.061H1711.39V507.061H1709.39V509.061ZM1709.39 519.754V521.754H1711.39V519.754H1709.39ZM1657.98 519.754V517.754H1655.98V519.754H1657.98ZM1657.98 553.738H1655.98V555.738H1657.98V553.738ZM1689.32 553.738H1691.32V551.738H1689.32V553.738ZM1689.32 564.285V566.285H1691.32V564.285H1689.32ZM1657.98 564.285V562.285H1655.98V564.285H1657.98ZM1657.98 606.912H1655.98V608.912H1657.98V606.912ZM1708.95 606.912H1710.95V604.912H1708.95V606.912ZM1708.95 617.679V619.679H1710.95V617.679H1708.95ZM1647.14 617.679H1645.14V619.679H1647.14V617.679ZM1647.14 511.061H1709.39V507.061H1647.14V511.061ZM1707.39 509.061V519.754H1711.39V509.061H1707.39ZM1709.39 517.754H1657.98V521.754H1709.39V517.754ZM1655.98 519.754V553.738H1659.98V519.754H1655.98ZM1657.98 555.738H1689.32V551.738H1657.98V555.738ZM1687.32 553.738V564.285H1691.32V553.738H1687.32ZM1689.32 562.285H1657.98V566.285H1689.32V562.285ZM1655.98 564.285V606.912H1659.98V564.285H1655.98ZM1657.98 608.912H1708.95V604.912H1657.98V608.912ZM1706.95 606.912V617.679H1710.95V606.912H1706.95ZM1708.95 615.679H1647.14V619.679H1708.95V615.679ZM1649.14 617.679V509.061H1645.14V617.679H1649.14ZM1854.57 529.861L1855.77 531.465L1857.34 530.29L1856.2 528.695L1854.57 529.861ZM1845.93 536.307L1844.34 537.519L1845.54 539.093L1847.13 537.91L1845.93 536.307ZM1828.94 522.391L1828.07 524.193L1828.08 524.196L1828.09 524.2L1828.94 522.391ZM1765.88 540.628L1764.15 539.62L1764.15 539.624L1765.88 540.628ZM1773.42 596.292L1772.09 597.784L1772.09 597.788L1773.42 596.292ZM1845.93 590.506L1847.13 588.909L1845.63 587.777L1844.41 589.205L1845.93 590.506ZM1854.57 597.024L1856.14 598.262L1857.41 596.657L1855.78 595.428L1854.57 597.024ZM1762.14 599.661L1760.62 600.964L1760.63 600.973L1762.14 599.661ZM1765.07 523.196L1763.68 521.763L1763.67 521.766L1765.07 523.196ZM1834.43 512.942L1833.54 514.733L1833.55 514.737L1833.55 514.74L1834.43 512.942ZM1853.38 528.258L1844.74 534.703L1847.13 537.91L1855.77 531.465L1853.38 528.258ZM1847.52 535.095C1842.65 528.701 1836.74 523.85 1829.79 520.581L1828.09 524.2C1834.42 527.181 1839.84 531.608 1844.34 537.519L1847.52 535.095ZM1829.81 520.589C1822.92 517.274 1815.37 515.63 1807.19 515.63V519.63C1814.82 519.63 1821.77 521.159 1828.07 524.193L1829.81 520.589ZM1807.19 515.63C1798.16 515.63 1789.79 517.789 1782.11 522.113L1784.07 525.598C1791.14 521.621 1798.83 519.63 1807.19 519.63V515.63ZM1782.11 522.113C1774.44 526.43 1768.44 532.27 1764.15 539.62L1767.6 541.636C1771.52 534.924 1776.99 529.582 1784.07 525.598L1782.11 522.113ZM1764.15 539.624C1759.9 546.938 1757.8 555.176 1757.8 564.285H1761.8C1761.8 555.817 1763.75 548.283 1767.61 541.632L1764.15 539.624ZM1757.8 564.285C1757.8 578.032 1762.54 589.264 1772.09 597.784L1774.75 594.8C1766.14 587.109 1761.8 577.003 1761.8 564.285H1757.8ZM1772.09 597.788C1781.59 606.214 1793.54 610.377 1807.77 610.377V606.377C1794.37 606.377 1783.41 602.483 1774.75 594.796L1772.09 597.788ZM1807.77 610.377C1823.61 610.377 1836.88 604.149 1847.45 591.807L1844.41 589.205C1834.57 600.69 1822.4 606.377 1807.77 606.377V610.377ZM1844.73 592.103L1853.37 598.621L1855.78 595.428L1847.13 588.909L1844.73 592.103ZM1853 595.787C1847.78 602.42 1841.27 607.547 1833.44 611.177L1835.13 614.806C1843.51 610.916 1850.53 605.398 1856.14 598.262L1853 595.787ZM1833.44 611.177C1825.63 614.801 1816.89 616.631 1807.19 616.631V620.631C1817.4 620.631 1826.73 618.701 1835.13 614.806L1833.44 611.177ZM1807.19 616.631C1788.63 616.631 1774.2 610.496 1763.65 598.349L1760.63 600.973C1772.05 614.119 1787.65 620.631 1807.19 620.631V616.631ZM1763.66 598.358C1754.78 588.011 1750.37 576.359 1750.37 563.333H1746.37C1746.37 577.358 1751.15 589.924 1760.62 600.964L1763.66 598.358ZM1750.37 563.333C1750.37 547.99 1755.73 535.131 1766.47 524.626L1763.67 521.766C1752.15 533.039 1746.37 546.937 1746.37 563.333H1750.37ZM1766.47 524.629C1777.25 514.132 1790.7 508.863 1806.97 508.863V504.863C1789.74 504.863 1775.26 510.483 1763.68 521.763L1766.47 524.629ZM1806.97 508.863C1816.85 508.863 1825.69 510.833 1833.54 514.733L1835.32 511.151C1826.86 506.946 1817.39 504.863 1806.97 504.863V508.863ZM1833.55 514.74C1841.47 518.601 1847.92 524.027 1852.95 531.028L1856.2 528.695C1850.78 521.145 1843.8 515.291 1835.31 511.145L1833.55 514.74ZM1898.61 509.061V507.061H1896.61V509.061H1898.61ZM1909.52 509.061H1911.52V507.061H1909.52V509.061ZM1909.52 554.617H1907.52V556.617H1909.52V554.617ZM1964.82 554.617V556.617H1966.82V554.617H1964.82ZM1964.82 509.061V507.061H1962.82V509.061H1964.82ZM1975.66 509.061H1977.66V507.061H1975.66V509.061ZM1975.66 617.679V619.679H1977.66V617.679H1975.66ZM1964.82 617.679H1962.82V619.679H1964.82V617.679ZM1964.82 565.311H1966.82V563.311H1964.82V565.311ZM1909.52 565.311V563.311H1907.52V565.311H1909.52ZM1909.52 617.679V619.679H1911.52V617.679H1909.52ZM1898.61 617.679H1896.61V619.679H1898.61V617.679ZM1898.61 511.061H1909.52V507.061H1898.61V511.061ZM1907.52 509.061V554.617H1911.52V509.061H1907.52ZM1909.52 556.617H1964.82V552.617H1909.52V556.617ZM1966.82 554.617V509.061H1962.82V554.617H1966.82ZM1964.82 511.061H1975.66V507.061H1964.82V511.061ZM1973.66 509.061V617.679H1977.66V509.061H1973.66ZM1975.66 615.679H1964.82V619.679H1975.66V615.679ZM1966.82 617.679V565.311H1962.82V617.679H1966.82ZM1964.82 563.311H1909.52V567.311H1964.82V563.311ZM1907.52 565.311V617.679H1911.52V565.311H1907.52ZM1909.52 615.679H1898.61V619.679H1909.52V615.679ZM1900.61 617.679V509.061H1896.61V617.679H1900.61ZM2024.45 617.679H2022.45V619.679H2024.45V617.679ZM2024.45 509.061V507.061H2022.45V509.061H2024.45ZM2026.79 509.061L2028.3 507.749L2027.71 507.061H2026.79V509.061ZM2099.01 592.19L2097.5 593.502L2101.01 597.542V592.19H2099.01ZM2099.01 509.061V507.061H2097.01V509.061H2099.01ZM2109.71 509.061H2111.71V507.061H2109.71V509.061ZM2109.71 617.679V619.679H2111.71V617.679H2109.71ZM2107.21 617.679L2105.71 618.992L2106.3 619.679H2107.21V617.679ZM2035.73 535.574L2037.24 534.261L2033.73 530.231V535.574H2035.73ZM2035.73 617.679V619.679H2037.73V617.679H2035.73ZM2026.45 617.679V509.061H2022.45V617.679H2026.45ZM2024.45 511.061H2026.79V507.061H2024.45V511.061ZM2025.29 510.372L2097.5 593.502L2100.52 590.879L2028.3 507.749L2025.29 510.372ZM2101.01 592.19V509.061H2097.01V592.19H2101.01ZM2099.01 511.061H2109.71V507.061H2099.01V511.061ZM2107.71 509.061V617.679H2111.71V509.061H2107.71ZM2109.71 615.679H2107.21V619.679H2109.71V615.679ZM2108.72 616.365L2037.24 534.261L2034.22 536.888L2105.71 618.992L2108.72 616.365ZM2033.73 535.574V617.679H2037.73V535.574H2033.73ZM2035.73 615.679H2024.45V619.679H2035.73V615.679ZM2251.52 523.636L2250.11 525.053L2250.11 525.056L2251.52 523.636ZM2251.59 603.323L2252.95 604.792L2251.59 603.323ZM2170.44 602.151L2169.03 603.569L2169.03 603.572L2170.44 602.151ZM2182.01 514.773L2183.01 516.507L2183.01 516.503L2182.01 514.773ZM2187.94 524.148L2188.94 525.88L2188.95 525.878L2187.94 524.148ZM2171.17 541.067L2172.91 542.052L2172.91 542.047L2171.17 541.067ZM2178.49 596.072L2177.16 597.558L2177.16 597.562L2178.49 596.072ZM2250.93 585.232L2252.67 586.222L2252.67 586.217L2250.93 585.232ZM2234.01 524.148L2233.01 525.881L2233.02 525.886L2234.01 524.148ZM2210.35 509.156C2226.26 509.156 2239.47 514.462 2250.11 525.053L2252.93 522.218C2241.5 510.837 2227.26 505.156 2210.35 505.156V509.156ZM2250.11 525.056C2260.8 535.655 2266.14 548.663 2266.14 564.212H2270.14C2270.14 547.632 2264.4 533.589 2252.92 522.215L2250.11 525.056ZM2266.14 564.212C2266.14 579.559 2260.83 592.051 2250.23 601.855L2252.95 604.792C2264.42 594.185 2270.14 580.604 2270.14 564.212H2266.14ZM2250.23 601.855C2239.59 611.698 2226.63 616.631 2211.23 616.631V620.631C2227.58 620.631 2241.52 615.359 2252.95 604.792L2250.23 601.855ZM2211.23 616.631C2195.63 616.631 2182.54 611.333 2171.85 600.731L2169.03 603.572C2180.5 614.943 2194.61 620.631 2211.23 620.631V616.631ZM2171.85 600.734C2161.09 590.023 2155.81 578.041 2155.81 564.725H2151.81C2151.81 579.241 2157.62 592.209 2169.03 603.569L2171.85 600.734ZM2155.81 564.725C2155.81 554.663 2158.24 545.333 2163.1 536.702L2159.61 534.74C2154.41 543.979 2151.81 553.986 2151.81 564.725H2155.81ZM2163.1 536.702C2167.95 528.074 2174.58 521.354 2183.01 516.507L2181.01 513.04C2171.95 518.252 2164.82 525.496 2159.61 534.74L2163.1 536.702ZM2183.01 516.503C2191.45 511.603 2200.55 509.156 2210.35 509.156V505.156C2199.85 505.156 2190.05 507.788 2181.01 513.044L2183.01 516.503ZM2210.79 515.85C2202.42 515.85 2194.46 518.051 2186.94 522.419L2188.95 525.878C2195.88 521.848 2203.15 519.85 2210.79 519.85V515.85ZM2186.94 522.417C2179.46 526.744 2173.61 532.642 2169.43 540.088L2172.91 542.047C2176.74 535.235 2182.07 529.853 2188.94 525.88L2186.94 522.417ZM2169.43 540.083C2165.24 547.484 2163.16 555.713 2163.16 564.725H2167.16C2167.16 556.354 2169.09 548.811 2172.91 542.052L2169.43 540.083ZM2163.16 564.725C2163.16 578.132 2167.81 589.139 2177.16 597.558L2179.83 594.586C2171.4 586.99 2167.16 577.098 2167.16 564.725H2163.16ZM2177.16 597.562C2186.48 605.916 2197.73 610.084 2210.79 610.084V606.084C2198.66 606.084 2188.38 602.244 2179.83 594.583L2177.16 597.562ZM2210.79 610.084C2219.53 610.084 2227.67 607.945 2235.15 603.668L2233.17 600.195C2226.3 604.121 2218.85 606.084 2210.79 606.084V610.084ZM2235.15 603.668C2242.63 599.393 2248.48 593.572 2252.67 586.222L2249.19 584.243C2245.37 590.956 2240.04 596.267 2233.17 600.195L2235.15 603.668ZM2252.67 586.217C2256.82 578.889 2258.94 571.546 2258.94 564.212H2254.94C2254.94 570.745 2253.05 577.416 2249.19 584.248L2252.67 586.217ZM2258.94 564.212C2258.94 555.294 2256.85 547.159 2252.67 539.853L2249.2 541.843C2253.01 548.502 2254.94 555.943 2254.94 564.212H2258.94ZM2252.67 539.853C2248.48 532.548 2242.57 526.731 2235 522.411L2233.02 525.886C2240 529.867 2245.38 535.182 2249.2 541.843L2252.67 539.853ZM2235.01 522.416C2227.44 518.046 2219.36 515.85 2210.79 515.85V519.85C2218.64 519.85 2226.03 521.852 2233.01 525.881L2235.01 522.416ZM2312.25 508.768V506.768H2310.25V508.768H2312.25ZM2323.16 508.768H2325.16V506.768H2323.16V508.768ZM2323.16 606.912H2321.16V608.912H2323.16V606.912ZM2364.91 606.912H2366.91V604.912H2364.91V606.912ZM2364.91 617.386V619.386H2366.91V617.386H2364.91ZM2312.25 617.386H2310.25V619.386H2312.25V617.386ZM2312.25 510.768H2323.16V506.768H2312.25V510.768ZM2321.16 508.768V606.912H2325.16V508.768H2321.16ZM2323.16 608.912H2364.91V604.912H2323.16V608.912ZM2362.91 606.912V617.386H2366.91V606.912H2362.91ZM2364.91 615.386H2312.25V619.386H2364.91V615.386ZM2314.25 617.386V508.768H2310.25V617.386H2314.25ZM2497.49 523.636L2496.08 525.053L2496.09 525.056L2497.49 523.636ZM2497.57 603.323L2498.92 604.792L2497.57 603.323ZM2416.41 602.151L2415 603.569L2415.01 603.572L2416.41 602.151ZM2427.99 514.773L2428.98 516.507L2428.99 516.503L2427.99 514.773ZM2433.92 524.148L2434.92 525.88L2434.92 525.878L2433.92 524.148ZM2417.15 541.067L2418.89 542.052L2418.89 542.047L2417.15 541.067ZM2424.47 596.072L2423.13 597.558L2423.14 597.562L2424.47 596.072ZM2496.91 585.232L2498.65 586.222L2498.65 586.217L2496.91 585.232ZM2479.99 524.148L2478.99 525.881L2479 525.886L2479.99 524.148ZM2456.33 509.156C2472.24 509.156 2485.44 514.462 2496.08 525.053L2498.9 522.218C2487.47 510.837 2473.23 505.156 2456.33 505.156V509.156ZM2496.09 525.056C2506.78 535.655 2512.12 548.663 2512.12 564.212H2516.12C2516.12 547.632 2510.38 533.589 2498.9 522.215L2496.09 525.056ZM2512.12 564.212C2512.12 579.559 2506.81 592.051 2496.21 601.855L2498.92 604.792C2510.39 594.185 2516.12 580.604 2516.12 564.212H2512.12ZM2496.21 601.855C2485.56 611.698 2472.61 616.631 2457.21 616.631V620.631C2473.55 620.631 2487.5 615.359 2498.92 604.792L2496.21 601.855ZM2457.21 616.631C2441.6 616.631 2428.52 611.333 2417.82 600.731L2415.01 603.572C2426.48 614.943 2440.59 620.631 2457.21 620.631V616.631ZM2417.83 600.734C2407.07 590.023 2401.79 578.041 2401.79 564.725H2397.79C2397.79 579.241 2403.59 592.209 2415 603.569L2417.83 600.734ZM2401.79 564.725C2401.79 554.663 2404.22 545.333 2409.07 536.702L2405.59 534.74C2400.39 543.979 2397.79 553.986 2397.79 564.725H2401.79ZM2409.07 536.702C2413.93 528.074 2420.56 521.354 2428.98 516.507L2426.99 513.04C2417.93 518.252 2410.79 525.496 2405.59 534.74L2409.07 536.702ZM2428.99 516.503C2437.42 511.603 2446.53 509.156 2456.33 509.156V505.156C2445.82 505.156 2436.03 507.788 2426.98 513.044L2428.99 516.503ZM2456.77 515.85C2448.39 515.85 2440.43 518.051 2432.91 522.419L2434.92 525.878C2441.86 521.848 2449.13 519.85 2456.77 519.85V515.85ZM2432.92 522.417C2425.43 526.744 2419.58 532.642 2415.4 540.088L2418.89 542.047C2422.72 535.235 2428.05 529.853 2434.92 525.88L2432.92 522.417ZM2415.41 540.083C2411.22 547.484 2409.14 555.713 2409.14 564.725H2413.14C2413.14 556.354 2415.06 548.811 2418.89 542.052L2415.41 540.083ZM2409.14 564.725C2409.14 578.132 2413.79 589.139 2423.13 597.558L2425.81 594.586C2417.38 586.99 2413.14 577.098 2413.14 564.725H2409.14ZM2423.14 597.562C2432.46 605.916 2443.71 610.084 2456.77 610.084V606.084C2444.64 606.084 2434.35 602.244 2425.81 594.583L2423.14 597.562ZM2456.77 610.084C2465.51 610.084 2473.64 607.945 2481.13 603.668L2479.14 600.195C2472.27 604.121 2464.83 606.084 2456.77 606.084V610.084ZM2481.13 603.668C2488.61 599.393 2494.46 593.572 2498.65 586.222L2495.17 584.243C2491.35 590.956 2486.02 596.267 2479.14 600.195L2481.13 603.668ZM2498.65 586.217C2502.79 578.889 2504.91 571.546 2504.91 564.212H2500.91C2500.91 570.745 2499.03 577.416 2495.17 584.248L2498.65 586.217ZM2504.91 564.212C2504.91 555.294 2502.83 547.159 2498.64 539.853L2495.17 541.843C2498.99 548.502 2500.91 555.943 2500.91 564.212H2504.91ZM2498.64 539.853C2494.45 532.548 2488.55 526.731 2480.98 522.411L2479 525.886C2485.98 529.867 2491.35 535.182 2495.17 541.843L2498.64 539.853ZM2480.99 522.416C2473.42 518.046 2465.33 515.85 2456.77 515.85V519.85C2464.61 519.85 2472.01 521.852 2478.99 525.881L2480.99 522.416ZM2663.04 527.884L2664.41 529.335L2665.95 527.88L2664.41 526.429L2663.04 527.884ZM2654.61 535.867L2653.21 537.293L2654.59 538.647L2655.99 537.319L2654.61 535.867ZM2634.69 522.317L2633.9 524.156L2633.91 524.158L2634.69 522.317ZM2589.28 524.002L2588.32 522.245L2588.32 522.248L2589.28 524.002ZM2571.63 584.72L2569.91 585.744L2569.91 585.749L2571.63 584.72ZM2589.79 602.005L2588.84 603.762L2588.84 603.765L2588.85 603.769L2589.79 602.005ZM2643.48 598.782L2642.22 597.229L2642.21 597.233L2643.48 598.782ZM2657.32 574.319L2659.3 574.609L2659.64 572.319H2657.32V574.319ZM2622.68 574.319H2620.68V576.319H2622.68V574.319ZM2622.68 563.846V561.846H2620.68V563.846H2622.68ZM2669.41 563.846L2671.41 563.857L2671.42 561.846H2669.41V563.846ZM2654.47 603.836L2653.05 602.422L2653.05 602.425L2654.47 603.836ZM2567.23 598.123L2565.72 599.424L2565.72 599.425L2567.23 598.123ZM2561.38 534.036L2559.69 532.955L2559.69 532.962L2561.38 534.036ZM2639.23 511.917L2638.46 513.764L2638.47 513.768L2639.23 511.917ZM2661.66 526.432L2653.24 534.416L2655.99 537.319L2664.41 529.335L2661.66 526.432ZM2656.01 534.442C2649.8 528.323 2642.95 523.659 2635.47 520.477L2633.91 524.158C2640.88 527.128 2647.32 531.497 2653.21 537.293L2656.01 534.442ZM2635.48 520.479C2628.08 517.311 2620.79 515.703 2613.6 515.703V519.703C2620.18 519.703 2626.94 521.172 2633.9 524.156L2635.48 520.479ZM2613.6 515.703C2604.75 515.703 2596.32 517.892 2588.32 522.245L2590.24 525.759C2597.67 521.713 2605.45 519.703 2613.6 519.703V515.703ZM2588.32 522.248C2580.36 526.609 2574.13 532.518 2569.69 539.97L2573.13 542.018C2577.18 535.212 2582.87 529.793 2590.24 525.756L2588.32 522.248ZM2569.69 539.97C2565.31 547.322 2563.04 554.46 2563.04 561.355H2567.04C2567.04 555.36 2569.01 548.925 2573.13 542.018L2569.69 539.97ZM2563.04 561.355C2563.04 569.936 2565.34 578.076 2569.91 585.744L2573.35 583.696C2569.13 576.617 2567.04 569.181 2567.04 561.355H2563.04ZM2569.91 585.749C2574.5 593.388 2580.82 599.397 2588.84 603.762L2590.75 600.248C2583.34 596.214 2577.55 590.7 2573.34 583.691L2569.91 585.749ZM2588.85 603.769C2596.92 608.081 2605.71 610.23 2615.21 610.23V606.23C2606.34 606.23 2598.2 604.23 2590.74 600.241L2588.85 603.769ZM2615.21 610.23C2626.74 610.23 2636.63 606.956 2644.74 600.331L2642.21 597.233C2634.9 603.206 2625.94 606.23 2615.21 606.23V610.23ZM2644.74 600.335C2652.9 593.716 2657.76 585.109 2659.3 574.609L2655.34 574.03C2653.95 583.55 2649.59 591.251 2642.22 597.229L2644.74 600.335ZM2657.32 572.319H2622.68V576.319H2657.32V572.319ZM2624.68 574.319V563.846H2620.68V574.319H2624.68ZM2622.68 565.846H2669.41V561.846H2622.68V565.846ZM2667.41 563.834C2667.31 580.219 2662.47 593.005 2653.05 602.422L2655.88 605.25C2666.19 594.941 2671.31 581.066 2671.41 563.857L2667.41 563.834ZM2653.05 602.425C2643.68 611.84 2631.02 616.631 2614.84 616.631V620.631C2631.87 620.631 2645.62 615.559 2655.88 605.247L2653.05 602.425ZM2614.84 616.631C2595.33 616.631 2580.05 609.997 2568.75 596.821L2565.72 599.425C2577.86 613.593 2594.31 620.631 2614.84 620.631V616.631ZM2568.75 596.822C2560.03 586.636 2555.68 574.914 2555.68 561.575H2551.68C2551.68 575.873 2556.37 588.517 2565.72 599.424L2568.75 596.822ZM2555.68 561.575C2555.68 551.622 2558.16 542.82 2563.06 535.11L2559.69 532.962C2554.34 541.365 2551.68 550.923 2551.68 561.575H2555.68ZM2563.06 535.117C2568.04 527.36 2574.89 521.037 2583.66 516.155L2581.72 512.66C2572.42 517.836 2565.06 524.599 2559.69 532.955L2563.06 535.117ZM2583.66 516.155C2592.37 511.307 2602.23 508.863 2613.3 508.863V504.863C2601.62 504.863 2591.08 507.449 2581.72 512.66L2583.66 516.155ZM2613.3 508.863C2622.23 508.863 2630.61 510.5 2638.46 513.764L2640 510.07C2631.64 506.595 2622.73 504.863 2613.3 504.863V508.863ZM2638.47 513.768C2646.31 516.977 2654.04 522.147 2661.66 529.339L2664.41 526.429C2656.5 518.972 2648.37 513.498 2639.99 510.066L2638.47 513.768ZM2710.88 509.061V507.061H2708.88V509.061H2710.88ZM2721.72 509.061H2723.72V507.061H2721.72V509.061ZM2721.72 617.679V619.679H2723.72V617.679H2721.72ZM2710.88 617.679H2708.88V619.679H2710.88V617.679ZM2710.88 511.061H2721.72V507.061H2710.88V511.061ZM2719.72 509.061V617.679H2723.72V509.061H2719.72ZM2721.72 615.679H2710.88V619.679H2721.72V615.679ZM2712.88 617.679V509.061H2708.88V617.679H2712.88ZM2769.12 509.061V507.061H2767.12V509.061H2769.12ZM2831.38 509.061H2833.38V507.061H2831.38V509.061ZM2831.38 519.754V521.754H2833.38V519.754H2831.38ZM2779.96 519.754V517.754H2777.96V519.754H2779.96ZM2779.96 553.738H2777.96V555.738H2779.96V553.738ZM2811.31 553.738H2813.31V551.738H2811.31V553.738ZM2811.31 564.285V566.285H2813.31V564.285H2811.31ZM2779.96 564.285V562.285H2777.96V564.285H2779.96ZM2779.96 606.912H2777.96V608.912H2779.96V606.912ZM2830.94 606.912H2832.94V604.912H2830.94V606.912ZM2830.94 617.679V619.679H2832.94V617.679H2830.94ZM2769.12 617.679H2767.12V619.679H2769.12V617.679ZM2769.12 511.061H2831.38V507.061H2769.12V511.061ZM2829.38 509.061V519.754H2833.38V509.061H2829.38ZM2831.38 517.754H2779.96V521.754H2831.38V517.754ZM2777.96 519.754V553.738H2781.96V519.754H2777.96ZM2779.96 555.738H2811.31V551.738H2779.96V555.738ZM2809.31 553.738V564.285H2813.31V553.738H2809.31ZM2811.31 562.285H2779.96V566.285H2811.31V562.285ZM2777.96 564.285V606.912H2781.96V564.285H2777.96ZM2779.96 608.912H2830.94V604.912H2779.96V608.912ZM2828.94 606.912V617.679H2832.94V606.912H2828.94ZM2830.94 615.679H2769.12V619.679H2830.94V615.679ZM2771.12 617.679V509.061H2767.12V617.679H2771.12ZM2866.4 595.706L2865.37 593.993L2863.73 594.982L2864.64 596.662L2866.4 595.706ZM2875.63 590.14L2877.39 589.185L2876.39 587.346L2874.59 588.427L2875.63 590.14ZM2914.59 578.934L2916.24 577.793L2916.23 577.786L2916.23 577.779L2914.59 578.934ZM2895.92 564.139L2894.71 565.737L2894.82 565.819L2894.94 565.886L2895.92 564.139ZM2879.07 549.271L2880.71 548.125L2880.69 548.093L2880.66 548.061L2879.07 549.271ZM2886.17 510.599L2887.14 512.353L2887.14 512.349L2886.17 510.599ZM2913.93 511.038L2912.93 512.766L2912.93 512.77L2912.94 512.775L2913.93 511.038ZM2928.07 525.027L2929.27 526.626L2930.85 525.438L2929.68 523.844L2928.07 525.027ZM2919.21 531.692L2917.61 532.897L2918.81 534.491L2920.41 533.291L2919.21 531.692ZM2908.81 521.072L2907.76 522.78L2907.78 522.786L2907.79 522.792L2908.81 521.072ZM2888.67 522.464L2890.04 523.916L2890.05 523.909L2890.05 523.903L2888.67 522.464ZM2891.38 546.268L2892.79 544.853L2892.78 544.84L2892.76 544.827L2891.38 546.268ZM2905.44 557.181L2906.63 555.573L2906.62 555.57L2905.44 557.181ZM2924.7 574.393L2923.11 575.606L2923.12 575.617L2924.7 574.393ZM2920.96 609.915L2919.57 608.478L2919.57 608.483L2920.96 609.915ZM2867.43 597.419L2876.66 591.852L2874.59 588.427L2865.37 593.993L2867.43 597.419ZM2873.87 591.094C2880.49 603.286 2888.51 610.084 2898.11 610.084V606.084C2890.73 606.084 2883.76 600.919 2877.39 589.185L2873.87 591.094ZM2898.11 610.084C2902.1 610.084 2905.86 609.15 2909.38 607.287L2907.5 603.754C2904.57 605.309 2901.45 606.084 2898.11 606.084V610.084ZM2909.38 607.287C2912.89 605.425 2915.62 602.907 2917.49 599.72L2914.04 597.698C2912.59 600.175 2910.44 602.199 2907.5 603.754L2909.38 607.287ZM2917.49 599.72C2919.33 596.588 2920.25 593.212 2920.25 589.627H2916.25C2916.25 592.487 2915.52 595.166 2914.04 597.698L2917.49 599.72ZM2920.25 589.627C2920.25 585.535 2918.87 581.58 2916.24 577.793L2912.95 580.074C2915.2 583.318 2916.25 586.492 2916.25 589.627H2920.25ZM2916.23 577.779C2912.55 572.581 2906.02 567.473 2896.89 562.391L2894.94 565.886C2903.88 570.863 2909.8 575.618 2912.96 580.088L2916.23 577.779ZM2897.12 562.541C2892.6 559.14 2888.97 556.226 2886.22 553.795C2883.43 551.34 2881.64 549.46 2880.71 548.125L2877.43 550.416C2878.65 552.157 2880.74 554.293 2883.57 556.794C2886.43 559.319 2890.15 562.302 2894.71 565.737L2897.12 562.541ZM2880.66 548.061C2877.05 543.308 2875.28 538.185 2875.28 532.645H2871.28C2871.28 539.115 2873.37 545.077 2877.48 550.48L2880.66 548.061ZM2875.28 532.645C2875.28 528.239 2876.32 524.293 2878.38 520.76L2874.92 518.748C2872.49 522.929 2871.28 527.577 2871.28 532.645H2875.28ZM2878.38 520.76C2880.44 517.233 2883.34 514.433 2887.14 512.353L2885.21 508.844C2880.81 511.257 2877.36 514.56 2874.92 518.748L2878.38 520.76ZM2887.14 512.349C2890.99 510.221 2895.15 509.156 2899.65 509.156V505.156C2894.49 505.156 2889.66 506.386 2885.21 508.848L2887.14 512.349ZM2899.65 509.156C2904.37 509.156 2908.79 510.354 2912.93 512.766L2914.94 509.31C2910.2 506.546 2905.09 505.156 2899.65 505.156V509.156ZM2912.94 512.775C2917.03 515.113 2921.55 519.522 2926.46 526.211L2929.68 523.844C2924.63 516.959 2919.72 512.041 2914.93 509.302L2912.94 512.775ZM2926.87 523.429L2918 530.094L2920.41 533.291L2929.27 526.626L2926.87 523.429ZM2920.8 530.488C2916.72 525.076 2913.06 521.27 2909.83 519.352L2907.79 522.792C2910.32 524.293 2913.59 527.567 2917.61 532.897L2920.8 530.488ZM2909.85 519.365C2906.65 517.413 2903.14 516.436 2899.36 516.436V520.436C2902.41 520.436 2905.2 521.216 2907.76 522.78L2909.85 519.365ZM2899.36 516.436C2894.56 516.436 2890.48 517.934 2887.28 521.025L2890.05 523.903C2892.42 521.623 2895.46 520.436 2899.36 520.436V516.436ZM2887.29 521.012C2884.1 524.029 2882.49 527.802 2882.49 532.205H2886.49C2886.49 528.893 2887.66 526.172 2890.04 523.916L2887.29 521.012ZM2882.49 532.205C2882.49 534.836 2883.04 537.401 2884.12 539.887L2887.79 538.292C2886.92 536.286 2886.49 534.262 2886.49 532.205H2882.49ZM2884.12 539.887C2885.24 542.464 2887.25 545.068 2889.99 547.708L2892.76 544.827C2890.23 542.389 2888.62 540.208 2887.79 538.292L2884.12 539.887ZM2889.96 547.682C2891.51 549.232 2896.36 552.978 2904.25 558.791L2906.62 555.57C2898.6 549.665 2894.07 546.135 2892.79 544.853L2889.96 547.682ZM2904.25 558.789C2913.59 565.701 2919.82 571.301 2923.11 575.606L2926.29 573.179C2922.64 568.402 2916.03 562.527 2906.63 555.573L2904.25 558.789ZM2923.12 575.617C2926.38 579.83 2927.97 584.385 2927.97 589.334H2931.97C2931.97 583.443 2930.05 578.037 2926.28 573.168L2923.12 575.617ZM2927.97 589.334C2927.97 596.669 2925.22 603.02 2919.57 608.478L2922.36 611.352C2928.73 605.189 2931.97 597.819 2931.97 589.334H2927.97ZM2919.57 608.483C2914 613.919 2907.25 616.631 2899.21 616.631V620.631C2908.26 620.631 2916.02 617.532 2922.36 611.347L2919.57 608.483ZM2899.21 616.631C2892.95 616.631 2887.32 614.979 2882.29 611.684L2880.1 615.031C2885.81 618.767 2892.2 620.631 2899.21 620.631V616.631ZM2882.29 611.684C2877.29 608.414 2872.56 602.837 2868.16 594.75L2864.64 596.662C2869.22 605.079 2874.35 611.27 2880.1 615.031L2882.29 611.684Z" fill="#1851EF"/>
</g>
<defs>
<linearGradient id="paint0_linear_163_147" x1="0" y1="0" x2="516.329" y2="682.292" gradientUnits="userSpaceOnUse">
<stop stop-color="#5DF8F9"/>
<stop offset="1" stop-color="#1851EF"/>
</linearGradient>
<clipPath id="clip0_163_147">
<rect width="2933" height="657" fill="white"/>
</clipPath>
</defs>
</svg>
